<svg width="506" height="726" viewBox="0 0 506 726" fill="none" xmlns="http://www.w3.org/2000/svg">
<circle cx="253" cy="363" r="249.5" stroke="white" stroke-width="7"/>
<path d="M239.73 635.545V90.0909H274.673V635.545H239.73ZM323.892 275.46C322.472 259.835 316.151 247.69 304.929 239.026C293.849 230.219 278.011 225.815 257.415 225.815C243.778 225.815 232.415 227.591 223.324 231.142C214.233 234.693 207.415 239.594 202.869 245.844C198.324 251.952 195.98 258.983 195.838 266.938C195.554 273.472 196.832 279.224 199.673 284.196C202.656 289.168 206.918 293.571 212.457 297.406C218.139 301.099 224.957 304.366 232.912 307.207C240.866 310.048 249.815 312.534 259.759 314.665L297.259 323.188C318.849 327.875 337.884 334.125 354.361 341.938C370.98 349.75 384.901 359.054 396.122 369.849C407.486 380.645 416.08 393.074 421.903 407.136C427.727 421.199 430.71 436.966 430.852 454.438C430.71 481.994 423.75 505.645 409.972 525.389C396.193 545.134 376.378 560.261 350.526 570.773C324.815 581.284 293.778 586.54 257.415 586.54C220.909 586.54 189.091 581.071 161.96 570.134C134.83 559.196 113.736 542.577 98.679 520.276C83.6222 497.974 75.8807 469.778 75.4545 435.688H176.449C177.301 449.75 181.065 461.469 187.741 470.844C194.418 480.219 203.58 487.321 215.227 492.151C227.017 496.98 240.653 499.395 256.136 499.395C270.341 499.395 282.415 497.477 292.358 493.642C302.443 489.807 310.185 484.48 315.582 477.662C320.98 470.844 323.75 463.031 323.892 454.224C323.75 445.986 321.193 438.955 316.222 433.131C311.25 427.165 303.58 422.051 293.21 417.79C282.983 413.386 269.915 409.338 254.006 405.645L208.409 394.991C170.625 386.327 140.866 372.335 119.134 353.017C97.4006 333.557 86.6051 307.278 86.7472 274.182C86.6051 247.193 93.8494 223.543 108.48 203.23C123.111 182.918 143.352 167.08 169.205 155.716C195.057 144.352 224.531 138.67 257.628 138.67C291.435 138.67 320.767 144.423 345.625 155.929C370.625 167.293 390.014 183.273 403.793 203.869C417.571 224.466 424.602 248.33 424.886 275.46H323.892Z" fill="white"/>
</svg>
